<svg width="197" height="38" viewBox="0 0 197 38" fill="none" xmlns="http://www.w3.org/2000/svg">
<path d="M159.718 1.03684C159.504 1.15614 159.223 1.41178 159.077 1.60777L158.821 1.97419V6.54167V11.1177L159.043 11.6886C159.846 13.7423 161.57 15.1057 163.645 15.3187L164.2 15.3784L164.243 25.6893L164.285 36.0002L164.473 36.307C164.584 36.4774 164.832 36.7245 165.028 36.8609C165.344 37.0824 165.455 37.108 166.036 37.108C166.608 37.108 166.727 37.0824 167.026 36.8779C167.205 36.7501 167.453 36.503 167.572 36.324L167.786 36.0087L167.828 25.6978L167.871 15.3784L168.426 15.3187C170.552 15.1057 172.413 13.5804 173.062 11.5437C173.25 10.9558 173.25 10.862 173.25 6.46498V1.98271L173.019 1.65038C172.644 1.12205 172.251 0.900493 171.593 0.866408C170.893 0.832322 170.39 1.0624 170.005 1.60777L169.749 1.97419L169.707 4.11307L169.664 6.26046H168.768H167.871L167.828 4.12159C167.786 2.0168 167.786 1.98271 167.572 1.67594C167.214 1.13909 166.778 0.900493 166.129 0.866408C165.429 0.832322 164.926 1.0624 164.541 1.60777L164.285 1.97419L164.243 4.11307L164.2 6.26046H163.303H162.407L162.364 4.12159L162.322 1.98271L162.091 1.65038C161.716 1.12205 161.323 0.900493 160.665 0.866408C160.196 0.840844 160.034 0.874929 159.718 1.03684ZM169.621 10.1377C169.621 10.6575 169.203 11.2284 168.597 11.5523C168.324 11.6971 168.085 11.7142 166.036 11.7142C163.884 11.7142 163.756 11.7056 163.432 11.5267C162.851 11.2199 162.45 10.649 162.45 10.1377V9.88206H166.036H169.621V10.1377Z" fill="#FF7020"/>
<path d="M177.416 1.03684C177.203 1.15614 176.921 1.41178 176.776 1.60777L176.52 1.9742L176.477 11.4756L176.435 20.9769L175.717 21.19C173.925 21.7013 172.584 22.775 171.833 24.2832C171.175 25.6211 171.064 26.175 171.064 28.1179C171.064 29.541 171.09 29.8818 171.244 30.5039C172.08 33.8017 173.933 36.0513 176.52 36.912C177.024 37.0739 177.297 37.108 178.27 37.108C179.243 37.108 179.517 37.0739 180.02 36.912C182.607 36.0513 184.46 33.8017 185.297 30.5039C185.45 29.8818 185.476 29.541 185.476 28.1179C185.476 26.6863 185.45 26.3625 185.288 25.7745C184.648 23.4141 183.119 21.8461 180.823 21.19L180.106 20.9769L180.063 11.4841L180.02 1.98272L179.79 1.65038C179.414 1.12205 179.021 0.900498 178.364 0.866412C177.894 0.840848 177.732 0.874934 177.416 1.03684ZM179.952 24.7093C180.908 25.0331 181.531 25.7745 181.771 26.8482C181.933 27.5896 181.839 29.4472 181.6 30.2056C181.156 31.6031 180.311 32.7791 179.397 33.2393C178.825 33.529 177.724 33.5375 177.16 33.2478C176.187 32.745 175.402 31.6543 174.923 30.163C174.753 29.6006 174.727 29.3535 174.727 28.1179C174.727 26.7459 174.736 26.7033 174.975 26.175C175.402 25.2547 176.272 24.6582 177.416 24.5048C177.416 24.5048 179.423 24.5389 179.952 24.7093Z" fill="#FF7020"/>
<path d="M193.877 1.00275C192.785 1.57368 191.094 3.12458 190.053 4.49653C187.457 7.9477 185.946 12.8219 185.596 18.9148C185.468 21.1474 185.528 21.4797 186.117 22.0677C186.689 22.6386 186.842 22.6642 190.087 22.6642H192.87V29.2512V35.8468L193.066 36.2047C193.169 36.4092 193.425 36.6904 193.63 36.8438C193.963 37.0824 194.048 37.108 194.654 37.108C195.235 37.108 195.354 37.0824 195.653 36.8779C195.832 36.7501 196.08 36.503 196.2 36.324L196.413 36.0087V19V1.98271L196.183 1.65038C195.807 1.11353 195.414 0.900493 194.757 0.866408C194.33 0.849365 194.116 0.874929 193.877 1.00275ZM192.87 12.9498V19H191.06H189.259L189.318 18.1223C189.472 15.7789 190.044 12.9498 190.787 10.862C191.282 9.48155 192.614 6.89957 192.827 6.89957C192.853 6.89957 192.87 9.6179 192.87 12.9498Z" fill="#FF7020"/>
<path d="M9.93151 30.897C9.07646 30.897 8.42393 30.666 7.9739 30.2039C7.52387 29.7419 7.29886 29.0819 7.29886 28.2239V18.6535L8.37892 21.5906L0.413461 10.5352C0.0984432 10.0732 -0.0365646 9.57815 0.00843799 9.05013C0.0534406 8.50011 0.278454 8.02709 0.683477 7.63107C1.0885 7.23506 1.66228 7.03705 2.40483 7.03705C2.94486 7.03705 3.42864 7.16905 3.85616 7.43306C4.30619 7.69707 4.73371 8.11509 5.13874 8.68711L10.539 16.3104H9.45899L14.8593 8.68711C15.2868 8.09309 15.7031 7.67507 16.1081 7.43306C16.5356 7.16905 17.0307 7.03705 17.5932 7.03705C18.3132 7.03705 18.8758 7.22406 19.2808 7.59807C19.6858 7.95008 19.8996 8.4011 19.9221 8.95112C19.9446 9.47914 19.7533 10.0292 19.3483 10.6012L11.4841 21.5906L12.5304 18.6535V28.2239C12.5304 30.0059 11.6641 30.897 9.93151 30.897Z" fill="#FF7020"/>
<path d="M27.6141 30.963C25.8365 30.963 24.2839 30.622 22.9563 29.9399C21.6513 29.2579 20.6387 28.2789 19.9187 27.0028C19.1986 25.7268 18.8386 24.2197 18.8386 22.4816C18.8386 21.1836 19.0411 20.0176 19.4461 18.9835C19.8512 17.9495 20.4362 17.0694 21.2012 16.3434C21.9888 15.5954 22.9226 15.0344 24.0027 14.6603C25.0827 14.2643 26.2865 14.0663 27.6141 14.0663C29.3917 14.0663 30.9331 14.4073 32.2381 15.0894C33.5657 15.7714 34.5895 16.7394 35.3096 17.9935C36.0521 19.2475 36.4234 20.7436 36.4234 22.4816C36.4234 23.8017 36.2096 24.9787 35.7821 26.0128C35.3771 27.0468 34.792 27.9379 34.027 28.6859C33.2619 29.4339 32.3281 30.0059 31.2256 30.402C30.1455 30.776 28.9417 30.963 27.6141 30.963ZM27.6141 27.2338C28.3567 27.2338 28.9979 27.0578 29.538 26.7058C30.078 26.3538 30.5055 25.8368 30.8205 25.1547C31.1356 24.4507 31.2931 23.5597 31.2931 22.4816C31.2931 20.8756 30.9556 19.6985 30.2805 18.9505C29.6055 18.1805 28.7167 17.7955 27.6141 17.7955C26.8941 17.7955 26.2528 17.9605 25.6902 18.2905C25.1502 18.6205 24.7227 19.1375 24.4077 19.8415C24.1152 20.5236 23.9689 21.4036 23.9689 22.4816C23.9689 24.0877 24.3064 25.2868 24.9815 26.0788C25.6565 26.8488 26.534 27.2338 27.6141 27.2338Z" fill="#FF7020"/>
<path d="M45.6332 30.963C44.2381 30.963 43.0793 30.71 42.1567 30.2039C41.2342 29.6979 40.5479 28.9389 40.0978 27.9269C39.6703 26.8928 39.4566 25.6168 39.4566 24.0987V16.6404C39.4566 15.8044 39.6703 15.1774 40.0978 14.7593C40.5479 14.3413 41.1779 14.1323 41.988 14.1323C42.798 14.1323 43.428 14.3413 43.8781 14.7593C44.3281 15.1774 44.5531 15.8044 44.5531 16.6404V24.2307C44.5531 25.1988 44.7556 25.9248 45.1606 26.4088C45.5657 26.8708 46.207 27.1018 47.0845 27.1018C48.0521 27.1018 48.8396 26.7718 49.4471 26.1118C50.0772 25.4298 50.3922 24.5387 50.3922 23.4387V16.6404C50.3922 15.8044 50.606 15.1774 51.0335 14.7593C51.4835 14.3413 52.1135 14.1323 52.9236 14.1323C53.7561 14.1323 54.3862 14.3413 54.8137 14.7593C55.2637 15.1774 55.4887 15.8044 55.4887 16.6404V28.3559C55.4887 30.0499 54.6674 30.897 53.0248 30.897C52.2148 30.897 51.596 30.677 51.1685 30.2369C50.741 29.7969 50.5272 29.1699 50.5272 28.3559V26.1448L51.0335 27.4318C50.5385 28.5539 49.8297 29.4229 48.9071 30.0389C47.9846 30.655 46.8932 30.963 45.6332 30.963Z" fill="#FF7020"/>
<path d="M62.0651 30.897C61.21 30.897 60.5575 30.677 60.1075 30.2369C59.6575 29.7969 59.4324 29.1699 59.4324 28.3559V16.6404C59.4324 15.8264 59.6462 15.2104 60.0737 14.7923C60.5238 14.3523 61.1425 14.1323 61.9301 14.1323C62.7401 14.1323 63.3589 14.3523 63.7864 14.7923C64.214 15.2104 64.4277 15.8264 64.4277 16.6404V18.3565H64.0902C64.3602 17.0364 64.9565 16.0134 65.8791 15.2874C66.8016 14.5613 67.9942 14.1543 69.4568 14.0663C70.0193 14.0223 70.4468 14.1653 70.7393 14.4953C71.0544 14.8033 71.2231 15.3204 71.2456 16.0464C71.2906 16.7284 71.1444 17.2674 70.8069 17.6635C70.4918 18.0595 69.9518 18.3015 69.1868 18.3895L68.4105 18.4555C67.1279 18.5655 66.1716 18.9285 65.5415 19.5445C64.934 20.1606 64.6302 21.0516 64.6302 22.2176V28.3559C64.6302 29.1699 64.4052 29.7969 63.9552 30.2369C63.5277 30.677 62.8976 30.897 62.0651 30.897Z" fill="#FF7020"/>
<path d="M76.2109 30.897C75.4458 30.897 74.8608 30.688 74.4558 30.2699C74.0507 29.8519 73.8482 29.2689 73.8482 28.5209V9.41314C73.8482 8.66511 74.062 8.08209 74.4895 7.66407C74.9395 7.24606 75.5471 7.03705 76.3121 7.03705C76.9872 7.03705 77.5159 7.16905 77.8985 7.43306C78.3035 7.67507 78.6748 8.10409 79.0123 8.72011L86.809 22.6467H85.6614L93.4581 8.72011C93.7956 8.10409 94.1556 7.67507 94.5382 7.43306C94.9432 7.16905 95.472 7.03705 96.1245 7.03705C96.8896 7.03705 97.4746 7.24606 97.8796 7.66407C98.3071 8.08209 98.5209 8.66511 98.5209 9.41314V28.5209C98.5209 29.2689 98.3184 29.8519 97.9134 30.2699C97.5083 30.688 96.9233 30.897 96.1583 30.897C95.3932 30.897 94.7969 30.688 94.3694 30.2699C93.9644 29.8519 93.7619 29.2689 93.7619 28.5209V15.1554H94.5044L88.2266 26.1448C87.9565 26.5628 87.664 26.8818 87.349 27.1018C87.0565 27.2998 86.6627 27.3988 86.1677 27.3988C85.6727 27.3988 85.2676 27.2888 84.9526 27.0688C84.6376 26.8488 84.3563 26.5408 84.1088 26.1448L77.7634 15.1224H78.5735V28.5209C78.5735 29.2689 78.371 29.8519 77.966 30.2699C77.5834 30.688 76.9984 30.897 76.2109 30.897Z" fill="#FF7020"/>
<path d="M111.515 30.963C109.557 30.963 107.869 30.622 106.452 29.9399C105.057 29.2359 103.977 28.2569 103.212 27.0028C102.469 25.7268 102.098 24.2307 102.098 22.5146C102.098 20.8426 102.458 19.3795 103.178 18.1255C103.898 16.8494 104.899 15.8594 106.182 15.1554C107.487 14.4293 108.961 14.0663 110.603 14.0663C111.796 14.0663 112.876 14.2643 113.843 14.6603C114.811 15.0344 115.644 15.5844 116.341 16.3104C117.039 17.0144 117.567 17.8835 117.927 18.9175C118.287 19.9295 118.468 21.0626 118.468 22.3166C118.468 22.7347 118.333 23.0537 118.062 23.2737C117.792 23.4717 117.399 23.5707 116.881 23.5707H106.283V20.9966H114.789L114.249 21.4586C114.249 20.5566 114.114 19.8085 113.843 19.2145C113.573 18.5985 113.18 18.1365 112.662 17.8285C112.167 17.5205 111.548 17.3664 110.806 17.3664C109.973 17.3664 109.264 17.5535 108.679 17.9275C108.094 18.3015 107.644 18.8405 107.329 19.5445C107.014 20.2486 106.857 21.0956 106.857 22.0856V22.3496C106.857 24.0217 107.251 25.2538 108.038 26.0458C108.848 26.8378 110.041 27.2338 111.616 27.2338C112.156 27.2338 112.775 27.1678 113.472 27.0358C114.17 26.9038 114.822 26.6948 115.43 26.4088C115.947 26.1668 116.409 26.0898 116.814 26.1778C117.219 26.2438 117.534 26.4198 117.759 26.7058C117.984 26.9918 118.107 27.3218 118.13 27.6958C118.175 28.0699 118.096 28.4439 117.894 28.8179C117.691 29.1699 117.354 29.4669 116.881 29.7089C116.116 30.1269 115.25 30.435 114.282 30.633C113.337 30.853 112.415 30.963 111.515 30.963Z" fill="#FF7020"/>
<path d="M127.035 30.963C125.82 30.963 124.728 30.732 123.761 30.2699C122.793 29.8079 122.039 29.1809 121.499 28.3889C120.959 27.5968 120.689 26.7058 120.689 25.7158C120.689 24.5277 121.004 23.5927 121.634 22.9107C122.264 22.2066 123.288 21.7116 124.706 21.4256C126.123 21.1176 128.002 20.9636 130.342 20.9636H132.131V23.5377H130.376C129.229 23.5377 128.295 23.6037 127.575 23.7357C126.877 23.8457 126.371 24.0437 126.056 24.3297C125.763 24.6157 125.617 25.0117 125.617 25.5178C125.617 26.1338 125.831 26.6398 126.258 27.0358C126.708 27.4318 127.35 27.6298 128.182 27.6298C128.835 27.6298 129.409 27.4868 129.904 27.2008C130.421 26.8928 130.826 26.4858 131.119 25.9798C131.411 25.4518 131.557 24.8577 131.557 24.1977V20.4026C131.557 19.4345 131.332 18.7525 130.882 18.3565C130.432 17.9385 129.667 17.7295 128.587 17.7295C127.98 17.7295 127.316 17.8065 126.596 17.9605C125.898 18.0925 125.122 18.3235 124.267 18.6535C123.772 18.8735 123.333 18.9285 122.951 18.8185C122.568 18.6865 122.276 18.4665 122.073 18.1585C121.871 17.8285 121.769 17.4765 121.769 17.1024C121.769 16.7064 121.882 16.3324 122.107 15.9804C122.332 15.6064 122.703 15.3314 123.221 15.1554C124.278 14.7373 125.268 14.4513 126.191 14.2973C127.136 14.1433 128.002 14.0663 128.79 14.0663C130.522 14.0663 131.94 14.3193 133.043 14.8254C134.168 15.3094 135.011 16.0684 135.574 17.1024C136.136 18.1145 136.418 19.4235 136.418 21.0296V28.3559C136.418 29.1699 136.215 29.7969 135.81 30.2369C135.405 30.677 134.82 30.897 134.055 30.897C133.29 30.897 132.694 30.677 132.266 30.2369C131.861 29.7969 131.659 29.1699 131.659 28.3559V27.1348L131.895 27.3328C131.76 28.0809 131.467 28.7299 131.017 29.2799C130.59 29.8079 130.039 30.2259 129.364 30.534C128.689 30.82 127.912 30.963 127.035 30.963Z" fill="#FF7020"/>
<path d="M146.194 30.963C144.191 30.963 142.695 30.424 141.705 29.3459C140.715 28.2459 140.22 26.6178 140.22 24.4617V9.57815C140.22 8.74212 140.433 8.11509 140.861 7.69708C141.311 7.25706 141.952 7.03705 142.785 7.03705C143.595 7.03705 144.214 7.25706 144.641 7.69708C145.091 8.11509 145.316 8.74212 145.316 9.57815V24.2637C145.316 25.1658 145.507 25.8368 145.89 26.2768C146.295 26.6948 146.824 26.9038 147.476 26.9038C147.656 26.9038 147.825 26.8928 147.983 26.8708C148.14 26.8488 148.309 26.8378 148.489 26.8378C148.849 26.7938 149.096 26.9038 149.231 27.1678C149.389 27.4098 149.468 27.9049 149.468 28.6529C149.468 29.3129 149.333 29.8189 149.063 30.1709C148.793 30.501 148.376 30.721 147.814 30.831C147.589 30.853 147.33 30.875 147.037 30.897C146.745 30.941 146.464 30.963 146.194 30.963Z" fill="#FF7020"/>
</svg>
